<?xml version="1.0" encoding="utf-8"?>
<!-- Generator: Adobe Illustrator 25.2.3, SVG Export Plug-In . SVG Version: 6.00 Build 0)  -->
<svg version="1.1" id="Layer_1" xmlns="http://www.w3.org/2000/svg" xmlns:xlink="http://www.w3.org/1999/xlink" x="0px" y="0px"
	 viewBox="0 0 612 792" style="enable-background:new 0 0 612 792;" xml:space="preserve">
<style type="text/css">
	.st0{clip-path:url(#SVGID_1_);}
</style>
<g>
	<path d="M284.03,325.23c3.11,0,5.62-2.52,5.62-5.62v-1.52c0-3.11-2.52-5.62-5.62-5.62c-3.11,0-5.62,2.52-5.62,5.62v1.52
		C278.41,322.71,280.93,325.23,284.03,325.23L284.03,325.23z M284.03,325.23"/>
	<path d="M327.88,325.23c3.11,0,5.62-2.52,5.62-5.62v-1.52c0-3.11-2.52-5.62-5.62-5.62c-3.11,0-5.62,2.52-5.62,5.62v1.52
		C322.26,322.71,324.78,325.23,327.88,325.23L327.88,325.23z M327.88,325.23"/>
	<g>
		<defs>
			<rect id="SVGID_3_" x="144" y="204" width="324" height="384"/>
		</defs>
		<clipPath id="SVGID_1_">
			<use xlink:href="#SVGID_3_"  style="overflow:visible;"/>
		</clipPath>
		<path class="st0" d="M293.5,351.97c3.67,1.89,8.06,2.84,12.45,2.84c4.4,0,8.79-0.95,12.45-2.84c2.76-1.43,3.84-4.82,2.41-7.58
			c-1.43-2.76-4.82-3.84-7.58-2.41c-4.15,2.15-10.41,2.15-14.57,0c-2.76-1.43-6.15-0.35-7.58,2.41
			C289.67,347.15,290.75,350.54,293.5,351.97L293.5,351.97z M293.5,351.97"/>
		<path class="st0" d="M436.16,540.5h-35.43v-7.35c1.85,0.57,3.74,0.84,5.61,0.84c7.1,0,13.95-3.92,17.32-10.69
			c3.59-7.2,2.25-15.59-2.74-21.32l-6.24-15.35c-1.17-2.88-4.45-4.27-7.33-3.09c-2.88,1.17-4.26,4.45-3.09,7.33l0.6,1.48
			l-37.19-18.54l-11.3-12.77c-2.2-2.48-5.23-3.96-8.54-4.17c-1.36-0.08-2.7,0.07-3.97,0.41c-11.34-7.15-24.37-10.91-37.88-10.91
			s-26.53,3.76-37.87,10.91c-1.28-0.34-2.62-0.49-3.98-0.4c-3.31,0.2-6.35,1.68-8.55,4.17l-11.3,12.77l-37.2,18.55l25.15-61.91
			c4.96-12.2,16.67-20.08,29.83-20.08h17.02c1.32,3.14,3.35,5.96,6,8.23c2.65,1.73,8.67,9.84,20.88,9.84
			c5.88,0,11.76-2.05,16.55-6.14c2.75-2.68,7.49-5.15,10.33-11.92h17.02c13.16,0,24.87,7.88,29.83,20.08l14.53,35.77
			c0.89,2.19,2.99,3.51,5.21,3.51c0.7,0,1.42-0.13,2.11-0.41c2.87-1.17,4.26-4.45,3.09-7.33l-3.95-9.71v-21.74
			c0-23.29-11.92-44.37-31.9-56.4c-4.96-2.98-9.26-6.97-12.61-11.62c3-4.37,4.82-8.44,6.17-15.09h8.63
			c11.1,0,20.13-9.03,20.13-20.13c0-6.67-3.27-12.59-8.28-16.26l0.98-44.46c0.29-12.95-4.54-25.18-13.6-34.44
			c-9.05-9.26-21.17-14.36-34.12-14.36h-0.2c-3.41,0-6.72-0.86-9.57-2.48c-15.88-9.03-35.4-12.91-53.55-10.64
			c-3.08,0.39-5.27,3.2-4.89,6.28c0.39,3.08,3.2,5.26,6.28,4.88c15.79-1.97,32.78,1.4,46.59,9.26c4.54,2.58,9.77,3.95,15.13,3.95
			h0.2c9.89,0,19.16,3.89,26.07,10.97c6.92,7.08,10.61,16.42,10.4,26.32l-0.91,40.85c-0.23-0.01-0.46-0.02-0.69-0.02h-7.89
			c-2.29-21.18-8.45-45.34-19.66-54.86c-0.14-0.12-0.29-0.24-0.44-0.36l-0.07-0.05c-4.58-3.72-11.08-3.82-15.82-0.22
			c-17.6,13.38-38.55,21.75-60.59,24.19c-7.44,0.83-13.47,6.3-15.02,13.63c-1.18,5.61-2.12,11.64-2.77,17.68
			c0,0-8.35,0.01-8.58,0.02l-0.52-23.2c-0.09-3.95-1.5-7.7-3.96-10.57c-7.3-8.5-7.32-24.32-0.04-35.26
			c4.07-6.11,9.4-11.11,15.85-14.89c2.68-1.57,3.58-5.02,2.02-7.7c-1.57-2.68-5.02-3.58-7.7-2.02
			c-7.93,4.64-14.51,10.82-19.54,18.37c-10.04,15.11-9.66,36.55,0.87,48.82c0.77,0.9,1.22,2.14,1.25,3.5l0.59,26.8
			c-5.01,3.66-8.27,9.59-8.27,16.26c0,11.1,9.03,20.13,20.13,20.13h8.63c1.19,5.85,2.83,10.29,6.2,15.17
			c-3.34,4.61-7.61,8.57-12.56,11.55c-19.98,12.03-31.9,33.11-31.9,56.4v21.73l-20.2,49.73c-4.98,5.72-6.33,14.12-2.74,21.32
			c3.38,6.77,10.22,10.7,17.33,10.7c1.87,0,3.76-0.28,5.61-0.84v7.35h-35.42c-17.3,0-31.38,14.07-31.38,31.38v6.52
			c0,5.3,4.31,9.61,9.61,9.61h224.45c3.11,0,5.62-2.52,5.62-5.62c0-3.11-2.52-5.62-5.62-5.62H155.71v-4.88
			c0-11.1,9.03-20.12,20.13-20.12h48.24c7.34,0,14.31-2.21,20.15-6.39c11.76-8.4,26.38-13.62,42.48-13.62h38.59
			c15.84,0,30.51,5.07,42.48,13.62c5.84,4.18,12.81,6.39,20.15,6.39h48.24c11.1,0,20.12,9.03,20.12,20.12v4.88h-51.52
			c-3.11,0-5.62,2.52-5.62,5.62s2.52,5.62,5.62,5.62h53.17c5.3,0,9.61-4.31,9.61-9.61v-6.52
			C467.54,554.57,453.46,540.5,436.16,540.5L436.16,540.5z M413.61,518.27c-1.98,3.98-6.84,5.6-10.82,3.62l-31.71-15.82
			c1.27-0.97,1.57-1.3,4.86-4.21c2.78-2.45,4.17-5.88,4.17-9.31l29.88,14.9c1.93,0.96,3.37,2.62,4.05,4.66
			C414.72,514.16,414.57,516.35,413.61,518.27L413.61,518.27z M365.94,517.54c0,4.3-0.46,8.54-1.35,12.68
			c-3.37-1.78-6.83-3.34-10.38-4.63c0.44-2.65,0.67-5.34,0.67-8.05c0-2.29-0.16-4.56-0.47-6.8c0.32,0.04,0.64,0.06,0.96,0.08
			l10.54,5.26C365.92,516.56,365.94,517.05,365.94,517.54L365.94,517.54z M359.84,481.91c0.07,0.09,0.14,0.17,0.22,0.25l8.52,9.63
			c0.43,0.49,0.38,1.23-0.1,1.66l-3.52,3.11c-5.04,4.46-12.77,3.98-17.23-1.05l-6-6.78c-2.16-2.44-3.24-5.58-3.04-8.83
			c0.2-3.25,1.66-6.24,4.1-8.4l3.52-3.11c0.23-0.2,0.53-0.31,0.85-0.29c0.22,0.02,0.54,0.09,0.8,0.39L359.84,481.91z M333.88,464.47
			c-2.61,2.74-4.49,6.03-5.53,9.62c-6.87-3.54-14.54-5.43-22.35-5.43c-7.81,0-15.48,1.89-22.35,5.43c-1.04-3.59-2.92-6.88-5.53-9.62
			c8.56-4.51,18.07-6.87,27.88-6.87C315.82,457.6,325.32,459.96,333.88,464.47L333.88,464.47z M264.03,468.48
			c0.27-0.3,0.59-0.38,0.8-0.39c0.22-0.02,0.55,0.03,0.85,0.29l3.52,3.11c2.44,2.16,3.9,5.14,4.1,8.4c0.2,3.25-0.88,6.39-3.04,8.83
			l-6,6.78c-4.46,5.04-12.19,5.52-17.24,1.05l-3.51-3.11c-0.49-0.43-0.53-1.17-0.1-1.66L264.03,468.48z M247.41,530.21
			c-0.99-4.61-1.44-9.25-1.32-14.14l10.54-5.26c0.32-0.02,0.64-0.05,0.96-0.08c-0.68,4.9-0.63,9.89,0.2,14.85
			C254.24,526.88,250.77,528.44,247.41,530.21L247.41,530.21z M319.58,410.02l-4.33,3.69c-5.36,4.58-13.14,4.58-18.5,0l-4.32-3.69
			c-2.4-2.05-3.78-5.05-3.78-8.21V382.8c5.48,1.23,11.31,1.89,17.31,1.89c0.02,0,0.04,0,0.07,0c6.01,0,11.84-0.66,17.33-1.91v19.03
			C323.35,404.98,321.98,407.97,319.58,410.02L319.58,410.02z M363.04,383.75c14.61,8.8,24.02,23.44,26.04,40.02
			c-7.21-15.07-22.3-24.67-39.17-24.67h-15.3v-19.88c5.21-2.18,9.91-4.96,13.89-8.28C352.51,376.02,357.45,380.38,363.04,383.75
			L363.04,383.75z M379.91,327.26c0,4.89-3.98,8.88-8.88,8.88h-7.15c0.39-5.45,0.44-11.44,0.14-17.76h7.01
			C375.93,318.38,379.91,322.36,379.91,327.26L379.91,327.26z M267.81,287c24.06-2.67,46.93-11.8,66.15-26.41
			c0.29-0.22,0.64-0.34,0.98-0.34c0.34,0,0.68,0.11,0.96,0.34l0.31,0.25c7.59,6.45,14.25,27.98,16.21,52.35
			c0.82,10.27,0.7,20.14-0.34,27.8c-0.97,7.13-2.43,12.23-7,17.59c-9.25,10.75-25.21,14.84-39.07,14.84c-0.02,0-0.04,0-0.06,0
			c-13.98,0-30.06-4.37-39.06-14.79c-4.6-5.33-6.07-10.45-7.05-17.64c-1.04-7.67-1.16-17.54-0.33-27.8
			c0.58-7.27,1.63-14.68,3.05-21.44C263.1,289.21,265.21,287.29,267.81,287L267.81,287z M232,327.26c0-4.9,3.98-8.88,8.88-8.88h7.01
			c-0.3,6.31-0.26,12.31,0.14,17.76h-7.15C235.99,336.14,232,332.16,232,327.26L232,327.26z M248.96,383.75
			c5.59-3.36,10.51-7.71,14.51-12.77c3.99,3.32,8.69,6.1,13.92,8.27v19.85h-15.3c-16.87,0-31.96,9.6-39.17,24.67
			C224.94,407.19,234.35,392.55,248.96,383.75L248.96,383.75z M198.39,518.27c-0.96-1.92-1.11-4.11-0.43-6.16
			c0.68-2.04,2.12-3.7,4.05-4.66l29.88-14.9c0,3.44,1.39,6.87,4.17,9.31c3.38,2.97,3.6,3.25,4.86,4.21l-31.71,15.81
			C205.23,523.88,200.37,522.25,198.39,518.27L198.39,518.27z M222.51,540.5v-12.66l12.43-6.2c0.29,5.03,1.09,9.97,2.42,14.79
			c-3.86,2.66-8.44,4.07-13.29,4.07H222.51z M286.7,520.49c-6.12,0-12.14,0.67-18.01,1.95c-0.74-5.71-0.21-11.61,1.79-17.29
			c0.78-0.68,1.52-1.4,2.21-2.19l6-6.78c2.3-2.6,3.96-5.61,4.92-8.85c6.44-4.79,14.33-7.41,22.39-7.41c8.07,0,15.95,2.62,22.39,7.41
			c0.96,3.23,2.62,6.25,4.92,8.85l6,6.78c0.69,0.79,1.44,1.51,2.21,2.19c1.39,3.98,2.1,8.14,2.1,12.39c0,1.64-0.11,3.28-0.32,4.89
			c-5.87-1.28-11.89-1.94-18.01-1.94H286.7z M374.64,536.42c1.32-4.81,2.13-9.76,2.42-14.79l12.43,6.2v12.66h-1.57
			C383.08,540.5,378.5,539.08,374.64,536.42L374.64,536.42z M374.64,536.42"/>
	</g>
</g>
</svg>
