<?xml version="1.0" encoding="utf-8"?>
<!-- Generator: Adobe Illustrator 25.2.3, SVG Export Plug-In . SVG Version: 6.00 Build 0)  -->
<svg version="1.1" id="Layer_1" xmlns="http://www.w3.org/2000/svg" xmlns:xlink="http://www.w3.org/1999/xlink" x="0px" y="0px"
	 viewBox="0 0 612 792" style="enable-background:new 0 0 612 792;" xml:space="preserve">
<g>
	<path d="M481.82,510.43c-3.11,0-5.62,2.51-5.62,5.62v19.44c0,5.17-4.2,9.38-9.38,9.38h-322.2c-5.17,0-9.38-4.2-9.38-9.38V367.04
		c0-3.1-2.52-5.62-5.62-5.62c-3.11,0-5.62,2.52-5.62,5.62V535.5c0,11.38,9.25,20.62,20.62,20.62h63.57l14.38,22.4
		c3.81,5.94,10.3,9.48,17.36,9.48h131.59c7.06,0,13.55-3.54,17.35-9.48l14.38-22.4h63.57c11.38,0,20.62-9.25,20.62-20.62v-19.44
		C487.45,512.95,484.93,510.43,481.82,510.43L481.82,510.43z M379.41,572.44c-1.73,2.7-4.68,4.31-7.89,4.31H239.93
		c-3.21,0-6.16-1.61-7.89-4.31l-10.48-16.32h168.32L379.41,572.44z M379.41,572.44"/>
	<path d="M466.83,275.16h-13.44c5.02-18.89,0.3-39.77-14.28-54.45c-10.7-10.77-24.96-16.71-40.14-16.71
		c-15.19,0-29.45,5.93-40.14,16.71c-14.58,14.68-19.3,35.56-14.28,54.45H144.62c-11.37,0-20.62,9.25-20.62,20.62v45.01
		c0,3.11,2.52,5.62,5.62,5.62c3.11,0,5.62-2.52,5.62-5.62v-45.01c0-5.17,4.21-9.38,9.38-9.38h204.21c2.23,4.39,5.05,8.57,8.48,12.39
		h-200.3c-5.17,0-9.38,4.21-9.38,9.38v214.93c0,5.17,4.21,9.38,9.38,9.38h297.42c5.17,0,9.38-4.2,9.38-9.38V308.18
		c0-5.17-4.21-9.38-9.38-9.38h-13.82c3.43-3.82,6.25-8,8.48-12.39h17.73c5.17,0,9.38,4.2,9.38,9.38v194.02
		c0,3.11,2.52,5.62,5.62,5.62c3.11,0,5.62-2.52,5.62-5.62V295.79C487.45,284.41,478.2,275.16,466.83,275.16L466.83,275.16z
		 M366.8,228.64c8.57-8.63,20-13.39,32.16-13.39c12.16,0,23.59,4.75,32.16,13.39c13.28,13.37,16.34,33.2,9.27,49.82
		c-0.03,0.07-0.07,0.14-0.09,0.22c-2.27,5.26-5.54,10.19-9.83,14.48l-31.51,31.51l-31.51-31.51c-4.3-4.3-7.58-9.25-9.84-14.51
		c-0.02-0.05-0.04-0.09-0.06-0.14C350.46,261.88,353.51,242.02,366.8,228.64L366.8,228.64z M275.48,310.05L158.89,479.96V310.05
		H275.48z M158.89,499.84l130.23-189.79h79.32l1.46,1.46l-27.92,40.69c-1.76,2.56-1.11,6.07,1.46,7.82l109.13,74.89v44.22
		L322.8,390.08c-2.56-1.76-6.06-1.11-7.82,1.46l-89,129.7h-67.09V499.84z M239.63,521.23l81.45-118.69l131.49,90.22v28.47H239.63z
		 M452.56,421.26l-98.12-67.33l23.55-34.33l14.53,14.53c1.78,1.78,4.11,2.66,6.45,2.66c2.34,0,4.67-0.89,6.45-2.66l24.08-24.08
		h23.07V421.26z M452.56,421.26"/>
	<path d="M398.96,283.79c5.95,0,11.9-2.27,16.43-6.79c4.39-4.39,6.8-10.22,6.8-16.43c0-6.2-2.42-12.04-6.8-16.43
		c-9.06-9.06-23.8-9.06-32.86,0c-9.06,9.06-9.06,23.8,0,32.86C387.07,281.53,393.02,283.79,398.96,283.79L398.96,283.79z
		 M390.5,252.1c4.67-4.67,12.27-4.67,16.94,0c4.67,4.67,4.69,12.25,0,16.94c-4.67,4.67-12.27,4.67-16.94,0
		C385.81,264.36,385.81,256.78,390.5,252.1L390.5,252.1z M390.5,252.1"/>
	<path d="M333.7,452.59c-12.89,0-23.38,10.49-23.38,23.38c0,12.89,10.49,23.39,23.38,23.39c12.89,0,23.39-10.49,23.39-23.39
		C357.09,463.08,346.59,452.59,333.7,452.59L333.7,452.59z M333.7,488.11c-6.69,0-12.13-5.45-12.13-12.14
		c0-6.69,5.44-12.13,12.13-12.13c6.69,0,12.14,5.44,12.14,12.13C345.84,482.67,340.39,488.11,333.7,488.11L333.7,488.11z
		 M333.7,488.11"/>
</g>
</svg>
