<?xml version="1.0" encoding="utf-8"?>
<!-- Generator: Adobe Illustrator 25.2.3, SVG Export Plug-In . SVG Version: 6.00 Build 0)  -->
<svg version="1.1" id="Layer_1" xmlns="http://www.w3.org/2000/svg" xmlns:xlink="http://www.w3.org/1999/xlink" x="0px" y="0px"
	 viewBox="0 0 612 792" style="enable-background:new 0 0 612 792;" xml:space="preserve">
<style type="text/css">
	.st0{clip-path:url(#SVGID_1_);}
</style>
<g>
	<g>
		<defs>
			<rect id="SVGID_3_" x="159" y="204" width="294" height="384"/>
		</defs>
		<clipPath id="SVGID_1_">
			<use xlink:href="#SVGID_3_"  style="overflow:visible;"/>
		</clipPath>
		<path class="st0" d="M408.95,536.42c-2.96-0.93-6.12,0.73-7.05,3.69l-4.57,14.62c-4.11,13.17-16.15,22.02-29.95,22.02H244.8
			c-13.8,0-25.83-8.85-29.95-22.02l-41.16-131.74c-5.58-17.87-3.2-37.27,6.53-53.23c1.62-2.65,0.78-6.11-1.88-7.73
			c-2.65-1.62-6.11-0.78-7.73,1.88c-11.41,18.73-14.21,41.49-7.66,62.45l41.15,131.74C209.7,575.98,226.05,588,244.8,588h122.59
			c18.75,0,35.09-12.02,40.68-29.91l4.57-14.62C413.57,540.5,411.91,537.34,408.95,536.42L408.95,536.42z M408.95,536.42"/>
		<path class="st0" d="M406.55,334.37c-12.74-5.54-25.66-10.09-38.51-13.57l11.96-27h28.63c7.58,0,13.75-6.17,13.75-13.75V251
			c0-7.58-6.17-13.75-13.75-13.75h-28.22c-0.69-1.16-1.42-2.3-2.21-3.41l-13.19-18.71c-4.91-6.96-12.92-11.12-21.45-11.12h-74.95
			c-8.52,0-16.54,4.16-21.45,11.12l-13.18,18.71c-10.74,15.24-12.72,35.3-5.17,52.35l15.05,33.97c-13.3,3.54-26.58,8.26-39.57,14.08
			c-5.25,2.35-10.23,5.3-14.8,8.76c-2.47,1.88-2.96,5.41-1.08,7.88c1.11,1.46,2.79,2.23,4.49,2.23c1.18,0,2.38-0.38,3.39-1.14
			c3.89-2.95,8.12-5.46,12.59-7.46c13.01-5.82,26.3-10.49,39.6-13.93l3.9,8.81c0.24,0.54,0.5,1.07,0.78,1.58
			c-13.25,3.3-26.56,7.93-39.68,13.8c-24.66,11.04-37.15,38.92-29.05,64.86l41.15,131.74c2.65,8.44,10.37,14.12,19.22,14.12h122.59
			c8.85,0,16.57-5.68,19.21-14.12l40.96-131.1c8.2-26.22-4.69-54.28-29.98-65.27c-12.95-5.63-26-10.13-38.91-13.43
			c0.41-0.71,0.79-1.43,1.13-2.18l3.63-8.19c12.87,3.4,25.84,7.92,38.63,13.48c30.56,13.29,46.14,47.23,36.23,78.95l-28.55,91.42
			c-0.93,2.96,0.73,6.12,3.69,7.05c0.56,0.17,1.12,0.26,1.68,0.26c2.39,0,4.62-1.54,5.37-3.95l28.55-91.42
			C460.65,389.77,442.39,349.95,406.55,334.37L406.55,334.37z M408.62,248.5c1.37,0,2.5,1.12,2.5,2.5v29.05c0,1.38-1.12,2.5-2.5,2.5
			h-23.81c3.93-11.02,4.07-23.03,0.61-34.04H408.62z M243.18,240.32l13.19-18.71c2.8-3.98,7.38-6.36,12.25-6.36h74.95
			c4.87,0,9.45,2.38,12.25,6.36L369,240.32c8.48,12.03,10.04,27.86,4.08,41.32l-23.57,53.2c-1.81,4.08-5.86,6.72-10.33,6.72H273
			c-4.47,0-8.52-2.64-10.32-6.72l-23.57-53.2C233.15,268.18,234.71,252.35,243.18,240.32L243.18,240.32z M306.09,456.34
			c12.08,0,21.91-9.83,21.91-21.91v-39.18c5.36,5.55,8.46,13.03,8.46,21.05v65.36c0,16.75-13.62,30.38-30.38,30.38
			c-16.75,0-30.38-13.62-30.38-30.38v-65.36c0-8.02,3.11-15.49,8.47-21.05v39.19C284.18,446.51,294.01,456.34,306.09,456.34
			L306.09,456.34z M316.75,434.43c0,5.88-4.78,10.66-10.66,10.66s-10.66-4.78-10.66-10.66v-81.62h21.32V434.43z M416.82,416.92
			l-40.96,131.1c-1.16,3.73-4.57,6.23-8.46,6.23H244.8c-3.9,0-7.31-2.5-8.48-6.23l-41.15-131.74c-6.4-20.5,3.45-42.53,22.91-51.24
			c14.78-6.61,29.79-11.56,44.65-14.73c3.12,1.6,6.62,2.49,10.27,2.49h11.18v28.09c-12.24,7.56-19.72,20.83-19.72,35.4v65.36
			c0,22.95,18.67,41.63,41.62,41.63s41.62-18.68,41.62-41.63V416.3c0-14.58-7.47-27.84-19.71-35.39v-28.1h11.18
			c3.32,0,6.51-0.73,9.41-2.06c14.68,3.22,29.64,8.12,44.5,14.58C413.09,374.02,423.29,396.2,416.82,416.92L416.82,416.92z
			 M416.82,416.92"/>
	</g>
	<path d="M367.93,397.62h7.48c3.11,0,5.62-2.52,5.62-5.62c0-3.1-2.51-5.62-5.62-5.62h-7.48c-3.11,0-5.62,2.52-5.62,5.62
		C362.3,395.11,364.82,397.62,367.93,397.62L367.93,397.62z M367.93,397.62"/>
	<path d="M367.93,445.85h7.48c3.11,0,5.62-2.51,5.62-5.62c0-3.1-2.51-5.62-5.62-5.62h-7.48c-3.11,0-5.62,2.52-5.62,5.62
		C362.3,443.34,364.82,445.85,367.93,445.85L367.93,445.85z M367.93,445.85"/>
	<path d="M375.41,482.84h-7.48c-3.11,0-5.62,2.52-5.62,5.62c0,3.11,2.52,5.62,5.62,5.62h7.48c3.11,0,5.62-2.52,5.62-5.62
		C381.04,485.36,378.52,482.84,375.41,482.84L375.41,482.84z M375.41,482.84"/>
</g>
</svg>
