<?xml version="1.0" encoding="utf-8"?>
<!-- Generator: Adobe Illustrator 25.2.3, SVG Export Plug-In . SVG Version: 6.00 Build 0)  -->
<svg version="1.1" id="Layer_1" xmlns="http://www.w3.org/2000/svg" xmlns:xlink="http://www.w3.org/1999/xlink" x="0px" y="0px"
	 viewBox="0 0 612 792" style="enable-background:new 0 0 612 792;" xml:space="preserve">
<style type="text/css">
	.st0{clip-path:url(#SVGID_1_);}
</style>
<g>
	<g>
		<defs>
			<rect id="SVGID_3_" x="114" y="243" width="384" height="306"/>
		</defs>
		<clipPath id="SVGID_1_">
			<use xlink:href="#SVGID_3_"  style="overflow:visible;"/>
		</clipPath>
		<path class="st0" d="M306,396.13c9.51,0,17.25-7.74,17.25-17.25c0-9.51-7.73-17.25-17.25-17.25c-9.51,0-17.25,7.73-17.25,17.25
			C288.75,388.4,296.49,396.13,306,396.13L306,396.13z M306,372.89c3.31,0,6,2.69,6,6c0,3.31-2.69,6-6,6c-3.31,0-6-2.69-6-6
			C300,375.57,302.69,372.89,306,372.89L306,372.89z M306,372.89"/>
		<path class="st0" d="M497.69,520.53L462.4,418.88c-0.84-2.41-2.56-4.35-4.86-5.46c-1.43-0.69-2.97-1.01-4.52-0.95l-4.89-17.13
			l18.44-37.25c9.42-19.03,2.18-41.88-16.47-52.03l-2.46-1.34l-13.7-12.67c-4.5-4.15-10.75-5.85-16.73-4.55
			c-3.9,0.85-7.36,2.91-9.96,5.79c-24.32-31.03-61.54-49.32-101.26-49.32c-9.92,0-19.79,1.13-29.34,3.36
			c-3.03,0.71-4.91,3.73-4.2,6.76c0.71,3.03,3.74,4.91,6.76,4.2c8.71-2.04,17.73-3.07,26.79-3.07c37.94,0,73.39,18.29,95.45,49.07
			l-7.06,16.5l-3.02-5.6c-0.79-1.46-1.91-2.64-3.23-3.48c-19.24-25.93-49.84-41.38-82.15-41.38s-62.91,15.45-82.15,41.38
			c-1.31,0.85-2.44,2.02-3.23,3.49l-3.01,5.59l-7.05-16.49c11.59-16.18,27.11-29.21,45.09-37.76c2.8-1.33,4-4.69,2.66-7.5
			c-1.33-2.8-4.69-4-7.5-2.66c-18.01,8.57-33.79,21.23-46.06,36.9c-2.6-2.89-6.06-4.95-9.95-5.8c-5.98-1.3-12.24,0.4-16.74,4.55
			l-13.7,12.66l-2.46,1.34c-18.65,10.15-25.89,33-16.47,52.03l18.44,37.25l-4.89,17.13c-1.54-0.06-3.09,0.26-4.52,0.95
			c-2.29,1.11-4.02,3.06-4.86,5.46l-35.29,101.64c-1.02,2.94,0.54,6.14,3.47,7.16c2.94,1.02,6.14-0.54,7.16-3.47l34.73-100.05
			l47.07,16.34l-34.73,100.05c-1.02,2.93,0.54,6.14,3.47,7.16c0.61,0.21,1.24,0.31,1.84,0.31c2.33,0,4.51-1.46,5.32-3.78
			l29.18-84.05c24.31,26.18,58.1,41.02,94.18,41.02c17.77,0,34.97-3.55,51.14-10.57c2.85-1.24,4.16-4.55,2.92-7.4
			c-1.24-2.85-4.55-4.16-7.4-2.93c-14.74,6.4-30.44,9.64-46.66,9.64c-34.95,0-67.56-15.26-89.95-41.96l1.88-5.4
			c1.45-4.18-0.19-8.7-3.7-11.05l3.15-7.92c18.47,32.15,52.44,51.23,88.63,51.23c36.2,0,70.17-19.09,88.63-51.23l3.14,7.92
			c-3.51,2.36-5.15,6.87-3.7,11.05l1.87,5.39c-6.29,7.5-13.48,14.19-21.42,19.91c-2.52,1.82-3.09,5.33-1.28,7.85
			c1.1,1.53,2.82,2.34,4.57,2.34c1.14,0,2.29-0.34,3.29-1.06c6.91-4.98,13.29-10.63,19.08-16.85l29.18,84.07
			c0.81,2.32,2.99,3.78,5.32,3.78c0.61,0,1.23-0.1,1.84-0.31c2.93-1.02,4.49-4.22,3.47-7.16l-34.73-100.04l47.07-16.34l34.73,100.05
			c1.02,2.93,4.22,4.49,7.16,3.47C497.15,526.67,498.71,523.46,497.69,520.53L497.69,520.53z M395.2,338.14
			c2.52-0.12,4.71-1.65,5.71-3.97l13.36-31.23c0.96-2.3,2.91-3.92,5.34-4.45c2.43-0.53,4.88,0.13,6.7,1.82l14.21,13.14
			c0.84,0.77,1.36,0.91,4.21,2.49c13.27,7.33,18.49,23.57,11.76,37.16l-19.4,39.2c-0.62,1.25-0.75,2.7-0.37,4.04l5.54,19.43
			l-33.97,11.79l-35.06-88.27c-2.32-5.85,0.12-12.5,5.68-15.46l3.37-1.8l6.85,12.72C390.34,336.96,392.67,338.26,395.2,338.14
			L395.2,338.14z M242.34,360.75c5.37-1.77,10.98-3.3,16.8-4.59c-2.62,5.62-3.61,11.94-2.7,18.19c2.64,18.17,2.51,18.18,3.15,20.9
			l-29.36-4.03L242.34,360.75z M273.23,399.2c-1.59-2.6-2.62-5.44-3.06-8.46l-2.59-17.99c-0.85-5.91,0.88-11.92,4.73-16.48
			c1.6-1.9,3.91-3.12,6.51-3.46c7.65-0.92,17.02-1.49,23.42-1.59c10.65-0.17,21.35,0.43,30.93,1.59c2.61,0.34,4.91,1.57,6.52,3.46
			c3.85,4.56,5.58,10.57,4.73,16.48l-2.59,17.99c-0.44,3.02-1.47,5.86-3.06,8.45c-4.03,6.55-11.11,10.58-18.92,10.58h-27.7
			C284.52,409.77,277.36,405.91,273.23,399.2L273.23,399.2z M352.85,356.16c5.82,1.29,11.43,2.83,16.8,4.59l12.1,30.47l-29.36,4.03
			c0.23-0.96,0.42-1.93,0.56-2.91l2.59-17.99C356.45,368.1,355.48,361.78,352.85,356.16L352.85,356.16z M306,281.58
			c26.52,0,51.74,11.69,68.94,31.61l-1.32,0.7c-10.62,5.66-15.28,18.36-10.84,29.54l1.59,3.99c-7.92-2.17-16.23-3.89-24.85-5.13
			c-13.12-1.88-26.8-2.63-40.49-2.24c-9.41,0.27-18.63,1.11-26.52,2.24c-8.62,1.24-16.93,2.96-24.85,5.13l1.59-3.99
			c4.44-11.18-0.22-23.88-10.84-29.54l-1.33-0.71C254.26,293.27,279.48,281.58,306,281.58L306,281.58z M155.51,353.09
			c-6.73-13.59-1.51-29.83,11.76-37.16c2.85-1.58,3.37-1.71,4.21-2.49l14.21-13.14c1.82-1.69,4.26-2.36,6.7-1.82
			c2.43,0.53,4.38,2.15,5.36,4.49l13.34,31.18c1,2.33,3.18,3.85,5.71,3.97c2.52,0.13,4.86-1.18,6.1-3.43l6.83-12.68l3.37,1.8
			c5.56,2.96,8,9.61,5.68,15.46l-35.06,88.27l-33.98-11.79l5.55-19.43c0.38-1.34,0.25-2.79-0.37-4.04L155.51,353.09z M222.9,409.71
			l3.07-7.72l39.23,5.38c2.39,3.26,5.28,6.01,8.56,8.16l9.57,45.21C256.79,453.96,234.39,435.45,222.9,409.71L222.9,409.71z
			 M295.3,462.97l-9-42.47c1.91,0.33,3.86,0.52,5.84,0.52h27.7c1.98,0,3.93-0.18,5.84-0.52l-9,42.47c-3.52,0.41-7.09,0.63-10.7,0.63
			C302.39,463.61,298.82,463.39,295.3,462.97L295.3,462.97z M328.67,460.75l9.57-45.21c3.27-2.16,6.17-4.91,8.56-8.16l39.23-5.38
			l3.07,7.72C377.61,435.45,355.21,453.96,328.67,460.75L328.67,460.75z M328.67,460.75"/>
	</g>
</g>
</svg>
