<?xml version="1.0" encoding="utf-8"?>
<!-- Generator: Adobe Illustrator 25.2.3, SVG Export Plug-In . SVG Version: 6.00 Build 0)  -->
<svg version="1.1" id="Layer_1" xmlns="http://www.w3.org/2000/svg" xmlns:xlink="http://www.w3.org/1999/xlink" x="0px" y="0px"
	 viewBox="0 0 612 792" style="enable-background:new 0 0 612 792;" xml:space="preserve">
<g>
	<path d="M294.77,337.5v-21.83c0-5.42-4.41-9.82-9.82-9.82h-8.86l-23.38-78.81c-1.02-3.43-4.23-5.83-7.81-5.83h-24.03
		c-3.58,0-6.79,2.4-7.81,5.83l-23.38,78.81h-8.86c-5.41,0-9.82,4.41-9.82,9.82v21.83c0,5.42,4.41,9.82,9.82,9.82h104.13
		C290.37,347.32,294.77,342.91,294.77,337.5L294.77,337.5z M214.38,262.14h37.01l4.16,14.02h-45.32L214.38,262.14z M223.19,232.46
		h19.39l5.47,18.43h-30.33L223.19,232.46z M206.89,287.41h52l5.47,18.43h-62.94L206.89,287.41z M283.52,336.07H182.25v-18.98h101.27
		V336.07z M283.52,336.07"/>
	<path d="M430.79,529.31h-8.86l-23.38-78.8c-1.02-3.43-4.23-5.83-7.81-5.83h-24.03c-3.58,0-6.79,2.39-7.81,5.83l-23.38,78.8h-8.86
		c-5.42,0-9.82,4.41-9.82,9.82v21.83c0,5.42,4.41,9.82,9.82,9.82h60.89c3.11,0,5.62-2.52,5.62-5.62c0-3.11-2.52-5.62-5.62-5.62
		h-59.47v-18.98h101.27v18.98h-15.55c-3.11,0-5.62,2.52-5.62,5.62c0,3.11,2.52,5.62,5.62,5.62h16.98c5.42,0,9.83-4.41,9.83-9.82
		v-21.83C440.62,533.72,436.21,529.31,430.79,529.31L430.79,529.31z M360.23,485.61h37.01l4.16,14.01h-45.32L360.23,485.61z
		 M369.03,455.93h19.39l5.47,18.43h-30.33L369.03,455.93z M352.73,510.88h52l5.47,18.44h-62.94L352.73,510.88z M352.73,510.88"/>
	<path d="M289.14,408.27c-2.2-2.2-5.76-2.2-7.95,0l-61.8,61.8c-4.65,4.66-7.21,10.84-7.21,17.43v94.88c0,3.1,2.52,5.62,5.62,5.62
		c3.11,0,5.62-2.52,5.62-5.62v-94.88c0-3.58,1.39-6.94,3.92-9.47l61.8-61.8C291.33,414.03,291.33,410.46,289.14,408.27
		L289.14,408.27z M289.14,408.27"/>
	<path d="M399.45,338.4v-69.58l17.05,6.45c3.81,1.45,8.03,0.23,10.5-3.01c2.47-3.24,2.52-7.63,0.12-10.93l-37.89-51.99
		c-2.47-3.39-6.3-5.34-10.5-5.34c-4.2,0-8.03,1.95-10.51,5.34l-37.88,51.99c-2.4,3.29-2.35,7.68,0.12,10.93
		c2.47,3.24,6.69,4.45,10.5,3.01l17.04-6.45v60.12c0,1.61-0.63,3.13-1.77,4.27l-56.14,56.14c-2.2,2.2-2.2,5.76,0,7.95
		c2.2,2.19,5.76,2.19,7.96,0l56.14-56.14c3.27-3.27,5.07-7.61,5.07-12.23v-68.26c0-1.85-0.91-3.58-2.42-4.63
		c-1.52-1.05-3.46-1.29-5.19-0.63l-18.05,6.83l33.72-46.28c0.45-0.62,1.08-0.72,1.41-0.72c0.33,0,0.96,0.09,1.41,0.72l33.72,46.28
		l-18.05-6.83c-1.73-0.65-3.67-0.42-5.19,0.63c-1.52,1.05-2.43,2.78-2.43,4.63v77.72c0,3.58-1.39,6.94-3.92,9.47L247.43,484.73
		c-3.26,3.27-5.06,7.61-5.06,12.23v85.41c0,3.1,2.52,5.62,5.62,5.62c3.11,0,5.62-2.52,5.62-5.62v-85.41c0-1.61,0.62-3.13,1.77-4.27
		l136.85-136.86C396.89,351.17,399.45,344.98,399.45,338.4L399.45,338.4z M399.45,338.4"/>
</g>
</svg>
