<?xml version="1.0" encoding="utf-8"?>
<!-- Generator: Adobe Illustrator 25.2.3, SVG Export Plug-In . SVG Version: 6.00 Build 0)  -->
<svg version="1.1" id="Layer_1" xmlns="http://www.w3.org/2000/svg" xmlns:xlink="http://www.w3.org/1999/xlink" x="0px" y="0px"
	 viewBox="0 0 612 792" style="enable-background:new 0 0 612 792;" xml:space="preserve">
<g>
	<path d="M229.88,542.41h1.58c3.11,0,5.62-2.52,5.62-5.62c0-3.11-2.52-5.62-5.62-5.62h-1.58c-3.11,0-5.62,2.52-5.62,5.62
		C224.25,539.9,226.77,542.41,229.88,542.41L229.88,542.41z M229.88,542.41"/>
	<path d="M159.32,542.41h1.58c3.1,0,5.62-2.52,5.62-5.62c0-3.11-2.52-5.62-5.62-5.62h-1.58c-3.11,0-5.62,2.52-5.62,5.62
		C153.7,539.9,156.21,542.41,159.32,542.41L159.32,542.41z M159.32,542.41"/>
	<path d="M252.23,327.44h87.72c3.1,0,5.62-2.52,5.62-5.62c0-3.11-2.52-5.62-5.62-5.62h-87.72c-3.11,0-5.62,2.52-5.62,5.62
		C246.6,324.92,249.12,327.44,252.23,327.44L252.23,327.44z M252.23,327.44"/>
	<path d="M252.23,372.91h87.72c3.1,0,5.62-2.52,5.62-5.62c0-3.11-2.52-5.62-5.62-5.62h-87.72c-3.11,0-5.62,2.52-5.62,5.62
		C246.6,370.39,249.12,372.91,252.23,372.91L252.23,372.91z M252.23,372.91"/>
	<path d="M252.23,418.38h87.72c3.1,0,5.62-2.52,5.62-5.62c0-3.11-2.52-5.62-5.62-5.62h-87.72c-3.11,0-5.62,2.52-5.62,5.62
		C246.6,415.85,249.12,418.38,252.23,418.38L252.23,418.38z M252.23,418.38"/>
	<path d="M420.29,239.41c-2.58-1.73-6.07-1.04-7.8,1.54l-14.93,22.29l-6.55-6.55c-2.2-2.2-5.76-2.2-7.95,0c-2.2,2.2-2.2,5.76,0,7.95
		l11.39,11.39c1.06,1.06,2.49,1.65,3.98,1.65c0.18,0,0.37-0.01,0.55-0.03c1.68-0.16,3.19-1.07,4.12-2.46l18.74-27.98
		C423.56,244.63,422.87,241.14,420.29,239.41L420.29,239.41z M420.29,239.41"/>
	<path d="M319.36,523.9h51.85c3.11,0,5.62-2.52,5.62-5.62c0-3.11-2.52-5.62-5.62-5.62h-51.85c-3.11,0-5.62,2.52-5.62,5.62
		C313.74,521.38,316.26,523.9,319.36,523.9L319.36,523.9z M319.36,523.9"/>
	<path d="M488.71,354.71c-0.34-3.84-2.15-7.33-5.11-9.81l-15.48-12.99c-2.96-2.48-6.7-3.66-10.55-3.33
		c-3.85,0.34-7.33,2.15-9.82,5.11c-9.56,11.39-29.37,35-39.03,46.51v-70.38c26.62-2.82,47.43-25.41,47.43-52.76
		c0-29.26-23.8-53.06-53.06-53.06c-27.21,0-49.7,20.6-52.71,47.02H203.76c-7.72,0-14,6.28-14,14v21.06c0,3.11,2.52,5.62,5.62,5.62
		c3.1,0,5.62-2.52,5.62-5.62v-21.06c0-1.51,1.23-2.74,2.75-2.74H350.3c2.44,24.97,22.27,44.92,47.18,47.55v83.79l-40.34,48.08
		c-1.46,1.73-5.89,7.01-19.61,41.97c-2.12,5.41-0.62,11.31,3.83,15.05c2.49,2.09,5.49,3.15,8.52,3.15c2.38,0,4.78-0.66,6.97-1.99
		c32.04-19.59,36.47-24.87,37.93-26.61l2.71-3.23v66.67c0,1.52-1.23,2.75-2.75,2.75H263.9v-7.28c0-6.05-2.87-11.86-7.68-15.53
		c-3.16-2.33-4.11-3.36-6.58-4.62l-0.12-0.41l4.11-4.82h9.52c3.11,0,5.62-2.52,5.62-5.62c0-3.11-2.52-5.62-5.62-5.62H252.6
		c-2.65,0-5.15,1.15-6.87,3.17l-3.74-12.72c-2.89-9.83-12.06-16.7-22.31-16.7h-18.67V312.32c0-3.11-2.52-5.62-5.62-5.62
		c-3.11,0-5.62,2.52-5.62,5.62v156.96h-18.68c-10.25,0-19.42,6.87-22.31,16.7l-3.74,12.72c-1.72-2.01-4.23-3.17-6.87-3.17h-10.55
		c-3.11,0-5.62,2.52-5.62,5.62c0,3.11,2.52,5.62,5.62,5.62h9.52l4.12,4.82l-0.12,0.41c-2.47,1.27-3.4,2.27-6.58,4.62
		c-4.81,3.67-7.69,9.48-7.69,15.54v21.15c0,5.6,4.45,10.17,9.99,10.4v10.76c0,7.46,6.06,13.52,13.52,13.52h7.96
		c7.45,0,13.52-6.06,13.52-13.52v-10.74h47.05v10.74c0,7.45,6.07,13.52,13.52,13.52h7.96c7.46,0,13.52-6.07,13.52-13.52v-10.77
		c5.54-0.23,9.99-4.79,9.99-10.39v-2.62h130.83c7.72,0,14-6.28,14-14v-80.08l18-21.45c2-2.38,1.69-5.93-0.69-7.93
		c-2.38-2-5.93-1.69-7.92,0.69l-27.8,33.13l-20.4-17.11l51.3-61.14l20.4,17.11l-6.63,7.9c-2,2.38-1.69,5.93,0.69,7.93
		c2.38,2,5.93,1.69,7.92-0.69l41.79-49.8C487.87,362.31,489.06,358.56,488.71,354.71L488.71,354.71z M361.29,257.06
		c0-23.05,18.76-41.81,41.81-41.81c23.06,0,41.81,18.76,41.81,41.81c0,23.05-18.75,41.81-41.81,41.81
		C380.05,298.88,361.29,280.12,361.29,257.06L361.29,257.06z M159.58,489.15c1.49-5.07,6.23-8.62,11.52-8.62h48.59
		c5.29,0,10.02,3.55,11.51,8.62l5.81,19.78l-0.78,0.91h-81.68l-0.77-0.91L159.58,489.15z M138.12,532.17c0-2.57,1.22-5.03,3.26-6.59
		c3.15-2.27,3.98-3.39,6.18-4.09c0.81-0.26,1.66-0.39,2.51-0.39h90.63c1.8,0,3.59,0.6,5.03,1.7l3.66,2.79
		c2.04,1.56,3.26,4.02,3.26,6.59v20.32h-33.21l-2.29-8.19c-2.16-7.73-9.27-13.13-17.3-13.13h-8.93c-8.03,0-15.14,5.4-17.3,13.13
		l-2.29,8.19h-33.21V532.17z M207.76,552.49h-24.74l1.44-5.17c0.81-2.89,3.47-4.91,6.47-4.91h8.93c3,0,5.66,2.02,6.47,4.91
		L207.76,552.49z M160.61,574.48c0,1.25-1.02,2.27-2.27,2.27h-7.96c-1.25,0-2.27-1.02-2.27-2.27v-10.74h12.5V574.48z M240.4,576.75
		h-7.97c-1.25,0-2.27-1.02-2.27-2.27v-10.74h12.5v10.74C242.66,575.73,241.65,576.75,240.4,576.75L240.4,576.75z M382.58,469.27
		c-4.29,3.43-13.16,9.72-31.61,20.99c-1.09,0.67-1.96,0.17-2.38-0.18c-0.43-0.36-1.06-1.12-0.59-2.32
		c7.9-20.12,12.55-29.96,15.18-34.77L382.58,469.27z M428.45,374.2l10.6-12.62l20.39,17.11l-10.59,12.63L428.45,374.2z
		 M476.77,358.04l-10.1,12.04l-20.4-17.11l10.1-12.04c0.55-0.66,1.32-1.06,2.18-1.13c0.86-0.07,1.68,0.19,2.34,0.74l15.48,12.99
		c0.66,0.55,1.06,1.32,1.13,2.17C477.58,356.55,477.32,357.38,476.77,358.04L476.77,358.04z M476.77,358.04"/>
</g>
</svg>
