<?xml version="1.0" encoding="utf-8"?>
<!-- Generator: Adobe Illustrator 25.2.3, SVG Export Plug-In . SVG Version: 6.00 Build 0)  -->
<svg version="1.1" id="Layer_1" xmlns="http://www.w3.org/2000/svg" xmlns:xlink="http://www.w3.org/1999/xlink" x="0px" y="0px"
	 viewBox="0 0 612 792" style="enable-background:new 0 0 612 792;" xml:space="preserve">
<style type="text/css">
	.st0{clip-path:url(#SVGID_1_);}
</style>
<g>
	<g>
		<defs>
			<rect id="SVGID_3_" x="167" y="204" width="276" height="384"/>
		</defs>
		<clipPath id="SVGID_1_">
			<use xlink:href="#SVGID_3_"  style="overflow:visible;"/>
		</clipPath>
		<path class="st0" d="M429.09,204H180.91c-7.24,0-13.12,5.89-13.12,13.12v106.96c0,3.11,2.52,5.62,5.62,5.62
			c3.11,0,5.62-2.52,5.62-5.62v-69.13c20.7-2.55,37.15-19,39.7-39.7h172.53c2.55,20.7,19,37.15,39.7,39.7v238.59
			c-20.7,2.55-37.15,19-39.7,39.7h-14.83c-3.11,0-5.62,2.52-5.62,5.62c0,3.11,2.52,5.62,5.62,5.62h52.66
			c7.24,0,13.12-5.89,13.12-13.12V217.12C442.22,209.89,436.33,204,429.09,204L429.09,204z M179.03,243.59v-26.47
			c0-1.04,0.84-1.88,1.88-1.88h26.47C204.98,229.74,193.52,241.2,179.03,243.59L179.03,243.59z M402.62,215.25h26.47
			c1.03,0,1.88,0.84,1.88,1.88v26.47C416.48,241.2,405.02,229.74,402.62,215.25L402.62,215.25z M429.09,533.25h-26.47
			c2.39-14.49,13.86-25.95,28.34-28.34v26.47C430.97,532.41,430.13,533.25,429.09,533.25L429.09,533.25z M429.09,533.25"/>
		<path class="st0" d="M350.19,533.25h-18.86v-7.23c7.21-6.93,11.71-16.65,11.71-27.41c0-20.97-17.06-38.03-38.03-38.03
			s-38.03,17.06-38.03,38.03c0,10.76,4.5,20.48,11.71,27.41v7.23h-59.94c-2.55-20.7-19-37.14-39.7-39.7V350.34
			c0-3.11-2.52-5.62-5.63-5.62c-3.1,0-5.62,2.52-5.62,5.62v148.4c0,0.02,0,0.05,0,0.07c0,0.03,0,0.05,0,0.07v32.49
			c0,7.24,5.89,13.12,13.12,13.12h97.77v35.62c0,3.11,1.84,5.95,4.68,7.21c1.03,0.46,2.12,0.68,3.2,0.68c1.92,0,3.81-0.7,5.29-2.03
			L305,574.1l13.16,11.87c2.31,2.09,5.64,2.62,8.49,1.35c2.84-1.26,4.68-4.09,4.68-7.21V544.5h18.86c3.11,0,5.62-2.52,5.62-5.62
			C355.81,535.77,353.3,533.25,350.19,533.25L350.19,533.25z M179.04,531.37V504.9c14.49,2.39,25.95,13.86,28.34,28.34h-26.46
			C179.88,533.25,179.04,532.41,179.04,531.37L179.04,531.37z M305,471.84c14.77,0,26.78,12.01,26.78,26.78
			c0,14.77-12.02,26.78-26.78,26.78s-26.78-12.02-26.78-26.78C278.22,483.85,290.23,471.84,305,471.84L305,471.84z M320.07,572.55
			l-9.79-8.83c-3.02-2.73-7.56-2.73-10.57-0.01l-9.79,8.84v-39.03c4.63,2.01,9.72,3.12,15.07,3.12s10.45-1.12,15.07-3.12V572.55z
			 M320.07,572.55"/>
	</g>
	<path d="M404.89,472.96c0-3.11-2.52-5.62-5.62-5.62h-37.4c-3.11,0-5.63,2.52-5.63,5.62c0,3.11,2.52,5.62,5.63,5.62h37.4
		C402.37,478.59,404.89,476.07,404.89,472.96L404.89,472.96z M404.89,472.96"/>
	<path d="M205.11,472.96c0,3.11,2.52,5.62,5.62,5.62h37.4c3.11,0,5.62-2.52,5.62-5.62c0-3.11-2.52-5.62-5.62-5.62h-37.4
		C207.63,467.34,205.11,469.86,205.11,472.96L205.11,472.96z M205.11,472.96"/>
	<path d="M305,250.49c-32.39,0-58.43,26.43-58.43,58.43c0,32.91,27.56,58.43,58.43,58.43c30.51,0,58.43-25.11,58.43-58.43
		C363.43,276.91,337.39,250.49,305,250.49L305,250.49z M305,261.74c18.72,0,34.93,10.96,42.55,26.8
		c-13.66-4.48-28.48-6.44-42.98-6.4c-14.23,0.04-28.7,2-42.11,6.4C270.07,272.7,286.28,261.74,305,261.74L305,261.74z
		 M352.18,308.92c0,1.78-0.11,3.53-0.3,5.25l-15.34,2.11l1.48-10.25c0.42-2.93,0.24-5.89-0.49-8.7c2.82,0.73,5.56,1.55,8.19,2.46
		c1.85,0.65,3.8,0.97,5.74,0.99C351.93,303.43,352.18,306.14,352.18,308.92L352.18,308.92z M257.82,308.92
		c0-2.78,0.26-5.49,0.72-8.14c1.94-0.01,3.88-0.34,5.73-0.99c2.63-0.92,5.37-1.74,8.19-2.46c-0.72,2.81-0.91,5.77-0.48,8.7
		l1.48,10.25l-15.34-2.1C257.93,312.45,257.82,310.7,257.82,308.92L257.82,308.92z M290.9,324.38c-0.03-0.01-0.05-0.02-0.08-0.04
		c-1.82-0.93-3.36-2.4-4.48-4.22c-0.84-1.38-1.39-2.88-1.62-4.48l-1.62-11.23c-0.45-3.14,0.43-6.2,2.47-8.62
		c0.66-0.78,1.62-1.28,2.73-1.43c4.68-0.57,10.08-0.93,15.55-0.98c5.5-0.05,11.76,0.25,17.83,0.98c1.1,0.14,2.07,0.65,2.72,1.43
		c2.05,2.42,2.93,5.48,2.48,8.62l-1.62,11.23c-0.23,1.6-0.77,3.1-1.61,4.47c-1.12,1.82-2.66,3.3-4.49,4.23
		c-0.01,0-0.02,0.01-0.04,0.02c-1.66,0.87-3.52,1.35-5.48,1.35h-17.29C294.41,325.72,292.55,325.25,290.9,324.38L290.9,324.38z
		 M261,325.93l17.37,2.38c1.46,1.85,3.18,3.43,5.09,4.72l4.8,20C275.79,348.27,265.83,338.38,261,325.93L261,325.93z M300.52,355.88
		l-4.55-18.93c0.12,0,0.25,0.01,0.38,0.01c0,0,17.54-0.01,17.67-0.01l-4.55,18.93c-1.47,0.14-2.96,0.22-4.48,0.22
		C303.49,356.1,302,356.02,300.52,355.88L300.52,355.88z M321.73,353.03l4.8-20c1.91-1.29,3.62-2.87,5.09-4.72l17.38-2.38
		C344.17,338.38,334.22,348.27,321.73,353.03L321.73,353.03z M321.73,353.03"/>
	<path d="M350.06,240c-13.4-8.78-28.98-13.41-45.06-13.41c-45.4,0-82.34,36.94-82.34,82.34c0,45.4,36.93,82.34,82.34,82.34
		s82.34-36.94,82.34-82.34c0-17.67-5.52-34.52-15.95-48.71c-1.84-2.5-5.36-3.04-7.86-1.2c-2.5,1.84-3.04,5.36-1.2,7.86
		c9.01,12.25,13.77,26.8,13.77,42.05c0,39.2-31.89,71.09-71.09,71.09c-39.2,0-71.09-31.89-71.09-71.09
		c0-39.2,31.89-71.09,71.09-71.09c13.88,0,27.33,4,38.9,11.57c2.6,1.7,6.08,0.98,7.78-1.62C353.38,245.18,352.66,241.7,350.06,240
		L350.06,240z M350.06,240"/>
	<path d="M357.81,424.06H252.19c-3.1,0-5.62,2.52-5.62,5.62c0,3.11,2.52,5.62,5.62,5.62h105.62c3.1,0,5.62-2.52,5.62-5.62
		C363.43,426.58,360.91,424.06,357.81,424.06L357.81,424.06z M357.81,424.06"/>
</g>
</svg>
